# xmcd
#
# Track frame offsets: 
#        150
#        25870
#        47552
#        71649
#        90534
#        116106
#        134352
#        153512
#        171134
#        192991
#        207761
#        216041
#        230229
#        251556
#
# Disc length: 3640 seconds
#
# Revision: 0
# Processed by: cddbd v1.5.2PL0 Copyright (c) Steve Scherf et al.
# Submitted via: ExactAudioCopy v0.99pb5
#
DISCID=c80e360e
DTITLE=Various Artist - Rare Trax Vol. 6 (Blues Today)
DYEAR=1900
DGENRE=Blues
TTITLE0=Coco Robicheaux-Cottonmouth 
TTITLE1=Smokin' Joe Kubek-Take Your Best Shot
TTITLE2=The Paladins-Follow Your Heart 
TTITLE3=Ronnie Wood-Must Be Love 
TTITLE4=Buddy Guy-Heavy Love 
TTITLE5=James Armstrong-Away From Home
TTITLE6=Alvin Youngblood Hart-Illinois Blues
TTITLE7=Keb' Mo'-Everything I Need 
TTITLE8=The Holmes Brothers-Got Myself Together 
TTITLE9=Jimmy Thackery And The Drivers-Hang Up And Drive
TTITLE10=Mike Morgan and The Crawl-Wino II 
TTITLE11=Johnny Nocturne Band-New Kind Of Mambo
TTITLE12=Taj Mahal-The New Hula Blues 
TTITLE13=Rainer and Das Combo-Broken Promises
EXTD=
EXTT0=
EXTT1=
EXTT2=
EXTT3=
EXTT4=
EXTT5=
EXTT6=
EXTT7=
EXTT8=
EXTT9=
EXTT10=
EXTT11=
EXTT12=
EXTT13=
PLAYORDER=
